<?xml version="1.0" encoding="utf-8"?>
<!-- Generator: Adobe Illustrator 27.5.0, SVG Export Plug-In . SVG Version: 6.00 Build 0)  -->
<svg version="1.1" xmlns="http://www.w3.org/2000/svg" xmlns:xlink="http://www.w3.org/1999/xlink" x="0px" y="0px"
	 viewBox="0 0 500 500" style="enable-background:new 0 0 500 500;" xml:space="preserve">
<g id="BACKGROUND">
</g>
<g id="OBJECTS">
	<g>
		<circle style="fill:#FFFACA;" cx="275.037" cy="191.16" r="124.575"/>
		<path style="fill:#CEEA54;" d="M192.683,136.571c0,0,8.773,22.809,24.564,28.072c15.791,5.264,30.704,7.018,41.232,1.755
			c0,0,7.895,3.509,8.773,5.264c0.877,1.755-21.932,14.036-41.232,11.404c-19.3-2.632-42.986-28.073-42.986-28.073
			S182.156,129.552,192.683,136.571z"/>
		<path style="fill:#B9DB40;" d="M176.015,118.148c0,0-14.914,5.264-20.177,8.773c-5.264,3.509-6.141,33.336-9.65,44.741
			c-3.509,11.404-6.141,26.318-7.018,42.986c-0.877,16.668,0,26.318,0,26.318s24.563,12.282,41.232,2.632l8.773-6.141
			c0,0-4.386-35.091-2.632-60.532c1.755-25.441,6.141-40.354,6.141-40.354S187.419,120.78,176.015,118.148z"/>
		<ellipse style="opacity:0.25;fill:#F99DEC;" cx="201.468" cy="405.181" rx="78.967" ry="4.68"/>
		<polygon style="fill:#757F82;" points="179.524,226.052 272.514,212.893 410.246,297.111 341.819,311.147 		"/>
		<polygon style="fill:#DEFDFF;" points="191.806,236.579 268.128,225.175 264.619,300.62 191.806,322.551 186.542,237.456 		"/>
		<polygon style="fill:#DEFDFF;" points="273.392,228.684 270.76,297.988 389.191,357.642 404.982,305.883 		"/>
		<path style="fill:#354D56;" d="M125.133,374.31l-2.632,17.545c0,0,4.386,0.877,7.895,6.141s14.036,7.895,19.3,7.018
			c5.264-0.877,6.141-0.877,6.141-0.877s-9.65-15.791-18.423-21.932c-8.773-6.141-3.509-13.159-3.509-13.159L125.133,374.31z"/>
		<path style="fill:#354D56;" d="M165.488,353.256c0,0-7.895,16.668-7.895,17.545c0,0.877,2.632,6.141,5.264,10.527
			c2.632,4.386,9.65,11.404,14.036,11.404c4.386,0,8.773-2.632,8.773-2.632s-10.527-15.791-14.036-20.177
			c-3.509-4.386,4.386-12.282,4.386-12.282L165.488,353.256z"/>
		<path style="fill:#FFC5C5;" d="M180.401,100.603c0,0-7.018,18.423-9.65,21.932c-2.632,3.509,6.141,7.018,8.773,6.141
			c2.632-0.877,4.386-14.914,8.773-15.791C192.683,112.007,184.788,101.48,180.401,100.603z"/>
		<path style="fill:#FFD4D4;" d="M179.963,72.091c0,0-4.386,21.054-1.755,32.459s16.668,25.441,21.932,23.686
			c5.264-1.754,17.107-11.843,19.738-21.493c2.632-9.65,4.386-21.054,8.773-25.441c4.386-4.386-0.877-26.318-20.177-25.441
			C189.174,56.739,182.156,56.739,179.963,72.091z"/>
		<path style="fill:#AD4E4E;" d="M171.629,81.303c0,0-2.632-28.073,17.545-32.459c20.177-4.386,38.6-1.755,41.232,22.809
			c0,0,3.509,5.556-3.07,11.112c0,0,3.07-9.357-5.702-13.744c-8.773-4.386-11.405-4.386-14.036-7.018
			c-2.632-2.632-9.65,6.141-14.036,7.895c-4.386,1.755-4.386,10.527-3.509,12.282l-7.018,6.141
			C183.033,88.321,184.788,80.425,171.629,81.303z"/>
		<path style="fill:#CEEA54;" d="M162.856,140.957c0,0-23.686,20.177-28.073,28.95c-4.386,8.773-0.877,18.423,9.65,23.686
			c10.527,5.264,30.704,12.282,30.704,12.282s-3.509,10.527-7.895,10.527c-4.386,0-38.6-8.773-48.25-22.809
			c-9.65-14.036-7.018-21.932,2.632-35.968c9.65-14.036,33.336-30.704,33.336-30.704S164.611,130.43,162.856,140.957z"/>
		<path style="fill:#526D7A;" d="M140.047,237.456c0,0-0.877,15.791-1.755,22.809c-0.877,7.018,35.968-0.877,39.477-2.632
			c3.509-1.755,7.895-4.386,7.895-4.386v-21.054L140.047,237.456z"/>
		<path style="fill:#526D7A;" d="M167.242,256.756c0,0-10.527,42.986-14.914,54.391c-4.386,11.404-19.3,9.65-18.423,2.632
			c0.877-7.018,4.386-53.513,4.386-53.513S159.347,252.37,167.242,256.756z"/>
		<path style="fill:#526D7A;" d="M136.538,307.638c0,0-6.141,6.141-7.018,14.914c-0.877,8.773-4.386,47.372-5.264,50.882
			c-0.877,3.509,2.632,8.773,9.65,7.018c7.018-1.754,4.386-2.632,4.386-7.018c0-4.386,7.895-36.845,10.527-42.986
			c2.632-6.141,6.141-18.423,4.386-22.809C151.451,303.251,140.047,300.62,136.538,307.638z"/>
		<path style="fill:#526D7A;" d="M162.856,257.634c0,0,13.159,30.704,17.545,39.477c4.386,8.773,3.509,14.036,3.509,14.036
			s10.527,10.527,14.036,3.509c3.509-7.018-0.877-36.845-3.509-46.495c-2.632-9.65-7.018-21.055-7.018-21.055
			S163.733,251.493,162.856,257.634z"/>
		<path style="fill:#526D7A;" d="M185.665,305.006c0,0-8.773,7.895-10.527,16.668c-1.755,8.773-11.404,34.213-12.282,35.091
			c-0.877,0.877,3.509,6.141,7.018,7.018c3.509,0.877,5.264,0,5.264,0s7.895-19.3,11.405-24.563
			c3.509-5.264,14.036-23.686,11.404-30.704C195.315,301.497,185.665,305.006,185.665,305.006z"/>
		<path style="fill:#FFB6B6;" d="M254.969,148.852c0,0,1.755,6.141,4.386,7.895c2.632,1.755,2.486,8.773,2.486,8.773l7.164-7.895
			l-7.018-5.264C261.987,152.361,257.601,145.343,254.969,148.852z"/>
		<path style="fill:#FFB6B6;" d="M283.919,148.852c0,0,3.509-7.895,3.509-10.527c0-2.632,0-5.264,0-5.264s0.877-0.877,1.754,0
			c0.877,0.877,3.509,7.018,2.632,10.527s-7.895,10.527-7.895,10.527V148.852z"/>
		<path style="fill:#FF0000;" d="M270.76,129.552c0,0-5.264-3.509-8.773,0c-3.509,3.509-7.018,10.527-6.141,14.036
			s5.264,13.159,14.036,13.159s14.914-5.264,17.545-11.404c2.632-6.141,1.754-16.668-4.386-18.423
			C276.901,125.166,270.76,129.552,270.76,129.552z"/>
		<path style="fill:#909A9E;" d="M154.083,214.647l108.781-15.791c0,0,4.386-0.877,4.386,5.264L158.47,221.666
			C158.47,221.666,152.329,223.42,154.083,214.647z"/>
		<polygon style="fill:#909A9E;" points="179.524,226.052 186.542,326.06 333.923,377.819 341.819,311.147 		"/>
		<polygon style="fill:#757F82;" points="389.191,360.274 264.619,300.62 191.806,322.551 334.216,374.895 		"/>
		<ellipse style="fill:#333738;" cx="285.235" cy="433.526" rx="10.966" ry="15.352"/>
		<ellipse style="fill:#424647;" cx="290.498" cy="432.648" rx="10.966" ry="15.352"/>
		<ellipse style="fill:#333738;" cx="345.766" cy="416.858" rx="10.966" ry="15.352"/>
		<ellipse style="fill:#424647;" cx="351.03" cy="415.98" rx="10.966" ry="15.352"/>
		<ellipse style="fill:#333738;" cx="177.331" cy="394.487" rx="12.72" ry="17.545"/>
		<ellipse style="fill:#424647;" cx="182.595" cy="392.733" rx="12.72" ry="17.545"/>
		<ellipse style="fill:#333738;" cx="224.703" cy="380.451" rx="12.72" ry="17.545"/>
		<ellipse style="fill:#424647;" cx="229.967" cy="378.697" rx="12.72" ry="17.545"/>
		<path style="fill:#757F82;" d="M176.892,396.242c0,0,14.914-7.018,22.809-4.386s80.709,25.441,80.709,25.441
			s-0.877,14.914,1.755,16.668c2.632,1.755,6.141-10.527,7.018-12.282c0.877-1.754,74.568-20.177,74.568-20.177v-5.264
			l-107.904-26.318c0,0,32.459-7.018,46.495-0.877c14.036,6.141-65.795-12.282-77.2-3.509c-11.404,8.773-4.386,18.423-4.386,18.423
			s9.65,0.877,10.527-6.141c0.877-7.018,38.6,2.632,38.6,2.632l69.304,20.177l-50.004,9.65l-85.095-26.318
			c0,0-19.007-6.433-23.54-1.901C176.015,386.592,161.979,405.014,176.892,396.242z"/>
		<path style="fill:#5E6668;" d="M200.725,386.884c0,0,51.905-12.282,106.149-12.72l-23.979-8.773c0,0-94.16,3.802-105.126,18.861
			C166.804,399.312,200.725,386.884,200.725,386.884z"/>
		<path style="fill:#FFC5C5;" d="M183.033,88.321c0,0,3.509-15.791-7.895-14.913c-11.404,0.877-5.264,25.441,3.509,22.809
			C187.419,93.584,183.033,88.321,183.033,88.321z"/>
		<path style="fill:#AD4E4E;" d="M270.76,131.307c0,0-3.509-13.159,0.877-13.159c4.386,0,3.509,1.755,3.509,1.755l-1.755,11.405
			C273.392,131.307,273.392,133.939,270.76,131.307z"/>
		<path style="fill:#FFB6B6;" d="M167.242,212.893c0,0,7.018-2.632,8.773,2.632c1.755,5.264,1.755,7.018,4.386,6.141
			c2.632-0.877,2.632-9.65,0-12.282c-2.632-2.632-8.773-1.755-8.773-1.755S165.488,209.384,167.242,212.893z"/>
		<path style="fill:#FFB6B6;" d="M171.629,209.384c0,0,7.895-5.264,10.527-4.386c2.632,0.877,2.632-1.755,6.141,0
			c3.509,1.755,3.509,10.527,1.754,12.282c-1.754,1.755-3.509,0.877-3.509,0.877s0.877,2.632-3.509,0.877
			C178.647,217.279,171.629,209.384,171.629,209.384z"/>
		<path style="fill:#FFB6B6;" d="M188.297,207.629c0,0,7.018-0.877,7.895,2.632c0.877,3.509,0.877,6.141,0.877,6.141
			s3.509,0.877,3.509-3.509c0-4.386-2.632-9.65-7.018-8.773c-4.386,0.877-7.895,3.509-7.895,3.509H188.297z"/>
		<path style="fill:#FFB6B6;" d="M258.478,168.152c0,0,4.386-3.509,6.141-7.018c1.755-3.509,6.141-6.141,11.405-7.018
			c5.264-0.877,5.264-3.509,5.264-5.264c0-1.755-0.877-9.65-0.877-9.65s1.755-2.632,3.509-0.877
			c1.754,1.755,1.754,9.65,2.632,11.404c0.877,1.755-2.632,7.895-7.895,11.404c-5.264,3.509-14.914,11.405-14.914,11.405
			S257.601,174.293,258.478,168.152z"/>
		<polygon style="fill:#DEFDFF;" points="188.297,240.965 337.432,315.533 330.414,370.801 191.806,321.674 		"/>
		<polygon style="fill:#ACB4B7;" points="410.246,297.111 390.068,364.66 333.923,377.819 341.819,311.147 		"/>
		<polygon style="fill:#DEFDFF;" points="345.328,314.656 339.187,370.801 387.437,359.397 404.105,301.497 		"/>
		<polygon style="fill:#757F82;" points="390.068,358.519 397.086,361.151 394.455,370.801 331.291,384.837 181.279,333.079 
			180.401,325.183 189.174,321.674 190.051,325.183 333.923,375.187 389.191,362.028 		"/>
		<linearGradient id="SVGID_1_" gradientUnits="userSpaceOnUse" x1="261.5918" y1="448.8779" x2="261.5918" y2="47.1028">
			<stop  offset="0.0853" style="stop-color:#FF7BAA"/>
			<stop  offset="0.3176" style="stop-color:#FF80AD;stop-opacity:0.8776"/>
			<stop  offset="1" style="stop-color:#FFFFFF;stop-opacity:0"/>
		</linearGradient>
		<path style="opacity:0.38;fill:url(#SVGID_1_);" d="M410.245,297.111l-137.731-84.218l-84.648,11.979
			c-0.18-2.004-0.365-4.193-0.543-6.514c0.675,0.073,1.7-0.05,2.728-1.078c0.185-0.185,0.346-0.462,0.489-0.786l6.487-1.046
			c0.042,0.607,0.042,0.955,0.042,0.955s2.243,0.555,3.141-1.469l67.04-10.813c0-6.141-4.386-5.264-4.386-5.264l-63.314,9.191
			c-1.149-2.58-3.218-4.482-5.991-3.927c-1.65,0.33-3.175,0.908-4.436,1.501c-0.253-0.249-0.522-0.471-0.827-0.624
			c-0.754-0.377-1.339-0.544-1.83-0.594c-0.407-9.106-0.52-18.847,0.075-27.479c0.432-6.26,1.023-11.878,1.669-16.798
			c8.039,7.575,24.037,21.061,37.808,22.939c19.3,2.632,42.109-9.65,41.232-11.404c-0.158-0.316-0.549-0.69-1.075-1.089
			c3.21-2.572,8.873-7.034,12.48-9.438c4.19-2.794,7.26-7.249,7.899-9.837c2.091-2.352,4.743-5.637,5.26-7.708
			c0.877-3.509-1.755-9.65-2.632-10.527c-0.395-0.395-0.786-0.428-1.101-0.351c-0.86-2.811-2.49-5.061-5.04-5.789
			c-3.384-0.967-6.762-0.068-9.119,0.933l1.223-7.951c0,0,0.877-1.755-3.509-1.755c-3.296,0-2.134,7.429-1.353,11.123
			c-1.367-0.756-5.419-2.596-8.297,0.282c-3.509,3.509-7.018,10.527-6.141,14.036c0.268,1.071,0.867,2.717,1.814,4.483
			c-0.944-0.375-1.898-0.278-2.691,0.78c0,0,1.755,6.141,4.386,7.895c2.188,1.459,2.455,6.542,2.483,8.22
			c-0.732,0.799-1.454,1.498-2.044,2.039c-0.79-0.374-1.317-0.609-1.317-0.609c-10.527,5.264-25.441,3.509-41.232-1.755
			c-15.791-5.264-24.564-28.072-24.564-28.072s-3.122-9.348-9.756-14.857c0.535-1.545,1.102-3.134,1.731-4.536
			c5.252,6.911,12.137,12.175,15.482,11.06c5.264-1.754,17.107-11.843,19.738-21.493c2.428-8.903,4.114-19.286,7.805-24.287
			c6.096-5.451,2.722-10.804,2.722-10.804c-2.632-24.564-21.054-27.195-41.232-22.809c-13.936,3.029-16.99,17.355-17.546,25.929
			c-5.945,4.988-1.242,21.689,5.749,21.622c0.04,2.953,0.281,5.766,0.832,8.155c0.076,0.331,0.165,0.665,0.26,1
			c-1.668,4.193-4.094,10.103-5.961,13.884c-4.741,1.781-13.021,5.054-16.669,7.486c-0.101,0.068-0.198,0.163-0.296,0.249
			c-0.362-0.169-0.581-0.249-0.581-0.249s-23.686,16.668-33.336,30.704s-12.282,21.932-2.632,35.968
			c3.975,5.782,12.119,10.668,20.628,14.418c-0.18,2.179-0.333,4.39-0.451,6.637c-0.877,16.668,0,26.318,0,26.318
			s0.229,0.114,0.651,0.309c-0.317,5.126-0.922,14.147-1.528,18.991c0,0-2.826,37.448-4.04,50.199
			c-1.844,2.619-4.212,6.883-4.733,12.087c-0.877,8.773-4.386,47.372-5.264,50.882c-0.279,1.116-0.111,2.408,0.469,3.597
			l-2.224,14.826c0,0,4.386,0.877,7.895,6.141c3.509,5.264,14.036,7.895,19.3,7.018c5.264-0.877,6.141-0.877,6.141-0.877
			s-9.65-15.791-18.423-21.932c-0.965-0.676-1.752-1.362-2.403-2.048c5.61-1.573,3.28-2.59,3.28-6.725
			c0-4.386,7.895-36.845,10.527-42.986c2.53-5.904,5.858-17.465,4.552-22.247c3.504-10.525,9.257-32.988,12.128-44.431
			c4.075,9.426,11.751,27.041,14.902,33.342c2.058,4.116,2.95,7.447,3.325,9.836c-2.688,2.87-7.359,8.577-8.589,14.727
			c-1.755,8.773-11.404,34.213-12.282,35.091c-0.232,0.232-0.089,0.773,0.3,1.455c-2.329,4.989-5.564,12.02-5.564,12.582
			c0,0.877,2.632,6.141,5.264,10.527c0.802,1.337,2.015,2.918,3.433,4.471c-1.063,2.563-1.679,5.524-1.679,8.688
			c0,9.69,5.695,17.545,12.72,17.545c1.991,0,3.868-0.649,5.547-1.774c6.893-0.21,12.438-7.967,12.438-17.526
			c0-0.493-0.025-0.978-0.053-1.462c1.607-0.021,3.122,0.145,4.44,0.584c7.895,2.632,80.709,25.441,80.709,25.441
			s-0.059,1.009-0.1,2.527c-3.58,2.527-6.04,7.707-6.04,13.703c0,8.479,4.91,15.352,10.966,15.352c1.371,0,2.677-0.368,3.887-1.011
			c0.452,0.079,0.909,0.134,1.376,0.134c6.056,0,10.966-6.873,10.966-15.352c0-5.718-2.238-10.697-5.55-13.339
			c9.154-2.71,26.058-7.148,40.707-10.916c-1.148,2.427-1.821,5.334-1.821,8.464c0,8.479,4.91,15.352,10.966,15.352
			c1.371,0,2.677-0.368,3.887-1.011c0.452,0.079,0.909,0.134,1.377,0.134c6.056,0,10.966-6.873,10.966-15.352
			c0-5.346-1.954-10.049-4.914-12.798c4.132-1.043,6.669-1.677,6.669-1.677v-5.263l-85.459-20.844
			c7.28-0.548,14.78-0.947,22.364-1.131l30.636,10.57l63.163-14.036l2.632-9.65l-5.369-2.013L410.245,297.111z M267.458,156.465
			c0.477,0.104,0.97,0.176,1.478,0.218c-0.217,0.134-0.43,0.271-0.636,0.413L267.458,156.465z M212.324,384.431
			c0.129,0.764,0.295,1.507,0.494,2.229l-4.56-1.41C209.481,384.998,210.839,384.724,212.324,384.431z M235.892,363.177
			c-1.77-1.289-3.784-2.026-5.925-2.026c-1.991,0-3.868,0.649-5.547,1.774c-4.695,0.143-8.765,3.781-10.882,9.116
			c-9.312,1.545-17.875,3.417-24.399,5.667c-1.914-1.59-4.148-2.521-6.545-2.521c-1.991,0-3.868,0.649-5.546,1.774
			c-0.103,0.003-0.204,0.015-0.306,0.021c-2.047-2.941-3.96-5.617-5.114-7.059c-1.323-1.654-1.024-3.806-0.139-5.847
			c2.419,0.297,3.648-0.294,3.648-0.294s7.895-19.3,11.404-24.564c0.577-0.866,1.346-2.093,2.214-3.561l87.183,30.081
			c-1.408,0.078-2.99,0.17-4.741,0.278C258.718,364.311,245.267,362.828,235.892,363.177z M195.103,208.693l-4.225,0.613
			c-0.133-0.625-0.311-1.222-0.534-1.771C191.854,207.552,193.85,207.771,195.103,208.693z M134.783,169.907
			c2.077-4.154,8.482-10.865,14.651-16.781c-0.959,7.202-1.912,14.2-3.246,18.536c-1.814,5.895-3.39,12.732-4.614,20.26
			C133.317,186.444,130.825,177.824,134.783,169.907z M269.883,380.451l69.304,20.177l-50.004,9.65l-52.904-16.362
			c3.705-2.93,6.23-8.35,6.386-14.61c4.401-0.626,9.044-1.235,13.879-1.803C263.843,378.907,269.883,380.451,269.883,380.451z"/>
		<g style="opacity:0.37;">
			<path style="opacity:0.85;fill:#5EFF00;" d="M268.583,53.659c-0.137,0.835-0.123,1.674-0.106,2.514
				c0.017,0.828,0.143,1.642,0.381,2.445c0.523,1.766,1.874,2.838,3.877,3.357c0.703,0.182,1.428,0.281,2.159,0.348
				c0.083,0.008,0.171,0.005,0.247,0.029c0.26,0.082,0.32,0.299,0.136,0.477c-0.148,0.143-0.356,0.208-0.552,0.288
				c-1.078,0.441-2.045,1.022-2.922,1.71c-1.151,0.903-1.824,2.056-2.332,3.292c-0.278,0.676-0.479,1.36-0.403,2.087
				c0.028,0.268,0.012,0.541-0.083,0.804c-0.02,0.054-0.019,0.114-0.043,0.166c-0.071,0.158-0.196,0.286-0.408,0.253
				c-0.183-0.028-0.266-0.166-0.265-0.323c0.001-0.313-0.042-0.635,0.028-0.937c0.115-0.503,0.08-0.994-0.044-1.482
				c-0.242-0.947-0.545-1.878-1.102-2.734c-0.536-0.825-1.228-1.519-2.208-1.987c-0.622-0.297-1.296-0.447-1.994-0.526
				c-0.413-0.047-0.826-0.09-1.245-0.097c-0.353-0.006-0.522-0.117-0.531-0.292c-0.01-0.201,0.165-0.4,0.435-0.459
				c0.649-0.14,1.212-0.432,1.691-0.803c1.354-1.049,2.558-2.21,3.418-3.601c0.639-1.034,0.973-2.144,1.066-3.307
				c0.039-0.482,0.064-0.966,0.09-1.449c0.008-0.145,0.044-0.283,0.112-0.413c0.069-0.131,0.193-0.195,0.365-0.164
				c0.154,0.028,0.224,0.124,0.23,0.247C268.59,53.288,268.583,53.473,268.583,53.659z"/>
			<path style="opacity:0.85;fill:#5EFF00;" d="M334.228,101.412c-0.137,0.835-0.123,1.674-0.106,2.514
				c0.017,0.828,0.143,1.642,0.381,2.445c0.523,1.766,1.874,2.838,3.877,3.357c0.703,0.182,1.428,0.281,2.159,0.348
				c0.083,0.008,0.171,0.005,0.247,0.029c0.26,0.082,0.32,0.299,0.136,0.477c-0.148,0.143-0.356,0.208-0.551,0.288
				c-1.078,0.441-2.045,1.022-2.922,1.71c-1.151,0.903-1.824,2.056-2.332,3.292c-0.278,0.676-0.48,1.36-0.403,2.087
				c0.028,0.268,0.012,0.541-0.083,0.804c-0.02,0.054-0.019,0.114-0.043,0.166c-0.071,0.158-0.196,0.286-0.408,0.253
				c-0.183-0.028-0.266-0.166-0.265-0.323c0.001-0.313-0.042-0.635,0.028-0.937c0.115-0.503,0.08-0.994-0.044-1.482
				c-0.242-0.947-0.545-1.877-1.102-2.734c-0.536-0.825-1.228-1.519-2.208-1.987c-0.622-0.297-1.296-0.447-1.994-0.526
				c-0.413-0.047-0.826-0.09-1.245-0.097c-0.353-0.006-0.522-0.118-0.531-0.292c-0.01-0.201,0.165-0.4,0.435-0.459
				c0.648-0.141,1.212-0.432,1.691-0.803c1.354-1.048,2.559-2.21,3.418-3.601c0.639-1.034,0.973-2.144,1.066-3.307
				c0.039-0.482,0.064-0.966,0.09-1.449c0.008-0.145,0.044-0.283,0.112-0.413c0.068-0.131,0.193-0.195,0.365-0.164
				c0.153,0.028,0.224,0.124,0.23,0.246C334.235,101.041,334.228,101.227,334.228,101.412z"/>
			<path style="opacity:0.85;fill:#5EFF00;" d="M123.418,88.813c-0.137,0.835-0.123,1.674-0.106,2.514
				c0.017,0.828,0.143,1.642,0.381,2.445c0.523,1.766,1.873,2.838,3.877,3.357c0.703,0.182,1.428,0.281,2.159,0.348
				c0.083,0.008,0.171,0.005,0.247,0.029c0.26,0.082,0.321,0.299,0.136,0.477c-0.148,0.143-0.356,0.208-0.551,0.288
				c-1.078,0.441-2.045,1.022-2.922,1.71c-1.151,0.903-1.824,2.056-2.332,3.292c-0.278,0.676-0.479,1.36-0.403,2.087
				c0.028,0.268,0.012,0.541-0.083,0.804c-0.02,0.054-0.019,0.114-0.043,0.166c-0.071,0.158-0.196,0.286-0.408,0.253
				c-0.183-0.028-0.266-0.166-0.265-0.323c0.001-0.313-0.042-0.635,0.028-0.937c0.115-0.503,0.081-0.994-0.044-1.481
				c-0.242-0.947-0.545-1.878-1.102-2.734c-0.536-0.825-1.228-1.519-2.208-1.987c-0.622-0.297-1.296-0.447-1.994-0.526
				c-0.413-0.047-0.826-0.09-1.245-0.097c-0.353-0.006-0.522-0.117-0.531-0.291c-0.01-0.201,0.165-0.4,0.435-0.459
				c0.649-0.141,1.212-0.432,1.691-0.803c1.354-1.049,2.559-2.21,3.418-3.601c0.639-1.034,0.973-2.144,1.066-3.307
				c0.039-0.482,0.064-0.966,0.09-1.449c0.008-0.145,0.044-0.283,0.112-0.414c0.068-0.131,0.193-0.195,0.365-0.164
				c0.154,0.028,0.224,0.124,0.23,0.246C123.425,88.442,123.418,88.628,123.418,88.813z"/>
			<path style="opacity:0.85;fill:#5EFF00;" d="M296.517,190.329c-0.137,0.835-0.123,1.674-0.106,2.514
				c0.017,0.828,0.143,1.642,0.381,2.445c0.523,1.766,1.874,2.838,3.877,3.357c0.703,0.182,1.428,0.281,2.159,0.348
				c0.083,0.008,0.171,0.005,0.247,0.029c0.26,0.082,0.32,0.299,0.136,0.477c-0.148,0.143-0.356,0.208-0.552,0.288
				c-1.078,0.441-2.045,1.022-2.922,1.71c-1.151,0.903-1.824,2.056-2.332,3.292c-0.278,0.676-0.479,1.36-0.403,2.087
				c0.028,0.268,0.012,0.541-0.083,0.804c-0.02,0.054-0.02,0.114-0.043,0.166c-0.071,0.158-0.196,0.286-0.408,0.253
				c-0.183-0.028-0.265-0.166-0.265-0.323c0.001-0.313-0.042-0.635,0.028-0.937c0.115-0.503,0.08-0.994-0.044-1.482
				c-0.242-0.947-0.545-1.878-1.102-2.734c-0.536-0.825-1.228-1.519-2.208-1.987c-0.622-0.297-1.296-0.447-1.994-0.526
				c-0.413-0.047-0.826-0.09-1.245-0.097c-0.353-0.006-0.522-0.118-0.531-0.291c-0.01-0.201,0.165-0.4,0.435-0.459
				c0.649-0.141,1.212-0.432,1.691-0.803c1.354-1.049,2.559-2.21,3.418-3.601c0.639-1.034,0.973-2.144,1.066-3.307
				c0.039-0.482,0.064-0.966,0.09-1.449c0.008-0.145,0.044-0.283,0.112-0.413c0.069-0.131,0.193-0.195,0.365-0.164
				c0.154,0.028,0.224,0.124,0.23,0.247C296.524,189.959,296.517,190.144,296.517,190.329z"/>
			<path style="opacity:0.85;fill:#5EFF00;" d="M264.684,90.675c-1.811,0-1.814,2.815,0,2.815
				C266.495,93.49,266.498,90.675,264.684,90.675z"/>
			<path style="fill:#5EFF00;" d="M329.642,142.117c-1.811,0-1.814,2.815,0,2.815C331.453,144.932,331.456,142.117,329.642,142.117z
				"/>
			<path style="fill:#5EFF00;" d="M280.176,101.771c-3.622,0-3.628,5.63,0,5.63C283.798,107.401,283.804,101.771,280.176,101.771z"
				/>
			<path style="opacity:0.85;fill:#5EFF00;" d="M315.341,50.592c-3.622,0-3.628,5.63,0,5.63
				C318.963,56.222,318.969,50.592,315.341,50.592z"/>
			<path style="opacity:0.85;fill:#5EFF00;" d="M252.497,41.722c-3.622,0-3.628,5.63,0,5.63
				C256.12,47.352,256.126,41.722,252.497,41.722z"/>
			<path style="opacity:0.85;fill:#5EFF00;" d="M275.016,53.92c-1.811,0-1.814,2.815,0,2.815
				C276.827,56.735,276.83,53.92,275.016,53.92z"/>
			<path style="fill:#5EFF00;" d="M358.118,187.78c-1.811,0-1.814,2.815,0,2.815C359.929,190.594,359.932,187.78,358.118,187.78z"/>
			<path style="fill:#5EFF00;" d="M119.392,60.442c-1.207,0-1.209,1.877,0,1.877C120.599,62.319,120.601,60.442,119.392,60.442z"/>
			<path style="fill:#5EFF00;" d="M142.093,89.231c-1.207,0-1.209,1.876,0,1.876C143.3,91.107,143.302,89.231,142.093,89.231z"/>
			<path style="fill:#5EFF00;" d="M135.212,103.618c-1.207,0-1.209,1.877,0,1.877C136.42,105.494,136.422,103.618,135.212,103.618z"
				/>
			<path style="fill:#5EFF00;" d="M92.02,129.964c-1.207,0-1.21,1.877,0,1.877C93.228,131.841,93.23,129.964,92.02,129.964z"/>
			<path style="fill:#5EFF00;" d="M112.032,79.5c-1.207,0-1.209,1.877,0,1.877C113.239,81.377,113.241,79.5,112.032,79.5z"/>
			<path style="fill:#5EFF00;" d="M123.145,46.055c-1.207,0-1.209,1.877,0,1.877C124.352,47.932,124.354,46.055,123.145,46.055z"/>
			<path style="fill:#5EFF00;" d="M142.536,47.932c-1.208,0-1.21,1.876,0,1.876C143.743,49.808,143.745,47.932,142.536,47.932z"/>
			<path style="fill:#5EFF00;" d="M150.556,60.957c-3.622,0-3.628,5.63,0,5.63C154.178,66.586,154.184,60.957,150.556,60.957z"/>
			<path style="fill:#5EFF00;" d="M319.585,167.339c-3.622,0-3.628,5.63,0,5.63C323.207,172.968,323.213,167.339,319.585,167.339z"
				/>
			<path style="fill:#5EFF00;" d="M136.119,121.503c-3.622,0-3.628,5.63,0,5.63C139.741,127.132,139.747,121.503,136.119,121.503z"
				/>
			<path style="fill:#5EFF00;" d="M295.695,55.728c-1.811,0-1.814,2.815,0,2.815C297.506,58.542,297.509,55.728,295.695,55.728z"/>
			<path style="fill:#5EFF00;" d="M297.572,69.802c-1.811,0-1.814,2.815,0,2.815C299.383,72.617,299.386,69.802,297.572,69.802z"/>
			<path style="fill:#5EFF00;" d="M340.281,223.6c-1.811,0-1.814,2.815,0,2.815C342.092,226.414,342.095,223.6,340.281,223.6z"/>
			<path style="fill:#5EFF00;" d="M133.466,37.767c-1.811,0-1.814,2.815,0,2.815C135.277,40.582,135.28,37.767,133.466,37.767z"/>
			<path style="fill:#5EFF00;" d="M91.114,102.054c-1.811,0-1.814,2.815,0,2.815C92.925,104.869,92.928,102.054,91.114,102.054z"/>
			<path style="fill:#5EFF00;" d="M93.271,162.96c-1.811,0-1.814,2.815,0,2.815C95.082,165.775,95.085,162.96,93.271,162.96z"/>
			<path style="fill:#5EFF00;" d="M107.814,149.355c-1.811,0-1.814,2.815,0,2.815C109.626,152.17,109.629,149.355,107.814,149.355z"
				/>
		</g>
		<path style="opacity:0.21;fill:#FF7B7B;" d="M221.3,102.279c-0.747,1.681-3.554,2.065-6.269,0.858
			c-2.715-1.207-4.311-3.547-3.564-5.228c0.747-1.681,3.554-2.065,6.269-0.858C220.451,98.258,222.047,100.598,221.3,102.279z"/>
		<path style="opacity:0.21;fill:#FF7B7B;" d="M198.518,96.12c-0.995,1.547-3.828,1.497-6.326-0.111
			c-2.499-1.608-3.717-4.165-2.722-5.712c0.995-1.547,3.828-1.497,6.326,0.111C198.294,92.016,199.513,94.573,198.518,96.12z"/>
		<path style="fill:#282525;" d="M218.308,91.88c-1.71,0.896-0.32,3.555,1.393,2.657C221.411,93.641,220.021,90.982,218.308,91.88z"
			/>
		<path style="fill:#282525;" d="M194.774,86.13c-1.71,0.896-0.32,3.555,1.393,2.657C197.876,87.891,196.487,85.232,194.774,86.13z"
			/>
		<path style="fill:#F48C8C;" d="M193.882,98.863c0.885,1.413,2.236,2.268,3.88,2.505c0.825,0.119,0.545,1.381-0.274,1.263
			c-1.972-0.285-3.646-1.398-4.701-3.083C192.345,98.844,193.439,98.156,193.882,98.863z"/>
		<path style="fill:#AD4E4E;" d="M199.878,80.921c-1.402-2.136-3.884-1.476-5.808-0.53c-1.155,0.568-0.143,2.293,1.01,1.727
			c0.801-0.394,2.391-1.224,3.071-0.188C198.855,83.002,200.587,82.001,199.878,80.921z"/>
		<path style="fill:#AD4E4E;" d="M222.967,89.64c-0.721-1.223-1.782-2.221-3.071-2.821c-0.489-0.228-1.078-0.138-1.368,0.359
			c-0.253,0.433-0.133,1.139,0.359,1.368c0.997,0.464,1.794,1.153,2.354,2.103C221.893,91.757,223.623,90.752,222.967,89.64z"/>
	</g>
</g>
<g id="DESIGNED_BY_FREEPIK">
	<g>
		<g id="XMLID_319_">
			<g id="XMLID_338_">
				<path id="XMLID_346_" style="fill:#1D262D;" d="M260.104,468.991c-0.432,0.443-0.803,0.931-1.108,1.453l-0.465-0.241
					c-0.067-0.298-0.349-0.503-0.659-0.466c-0.331,0.039-0.568,0.339-0.529,0.67c0.039,0.331,0.339,0.568,0.67,0.529
					c0.066-0.008,0.127-0.026,0.184-0.052l0.451,0.234c-0.251,0.554-0.433,1.139-0.539,1.744l0.746,0.132
					c0.23-1.306,0.85-2.507,1.792-3.472L260.104,468.991z"/>
				<path id="XMLID_345_" style="fill:#1D262D;" d="M265.592,466.69c-0.171,0-0.341,0.006-0.51,0.017l-0.074-0.626
					c0.188-0.149,0.296-0.389,0.266-0.645c-0.046-0.393-0.402-0.674-0.795-0.628c-0.393,0.046-0.674,0.402-0.628,0.795
					c0.03,0.254,0.189,0.461,0.404,0.564l0.074,0.624c-0.714,0.116-1.403,0.332-2.06,0.646l0.327,0.684
					c0.934-0.447,1.942-0.673,2.995-0.673c0.496,0,0.993,0.053,1.475,0.158l0.161-0.741
					C266.692,466.748,266.142,466.69,265.592,466.69z"/>
				<path id="XMLID_344_" style="fill:#1D262D;" d="M272.194,469.237c0.331-0.04,0.566-0.341,0.526-0.672
					c-0.04-0.331-0.341-0.566-0.672-0.526c-0.309,0.038-0.535,0.304-0.53,0.609l-0.416,0.363c-0.418-0.43-0.889-0.813-1.408-1.139
					l-0.404,0.641c1.134,0.715,2.021,1.726,2.563,2.925l0.69-0.313c-0.251-0.554-0.568-1.072-0.942-1.545l0.402-0.351
					C272.065,469.242,272.129,469.245,272.194,469.237z"/>
				<path id="XMLID_343_" style="fill:#1D262D;" d="M265.044,476.898c-0.386,0.023-0.775,0.035-1.157,0.035
					c-0.88,0-1.733-0.061-2.478-0.179c-0.39-0.062-0.846-0.155-1.27-0.292c1.046,1.861,3.069,3.125,5.388,3.125
					c2.855,0,5.262-1.916,5.95-4.504c-0.682,0.449-1.505,0.825-2.459,1.123C267.839,476.573,266.463,476.813,265.044,476.898z"/>
				<path id="XMLID_339_" style="fill:#1D262D;" d="M265.592,468.206c-3.352,0-6.08,2.666-6.08,5.944
					c0,0.425,0.046,0.849,0.137,1.261c0.673,0.483,2.706,0.89,5.348,0.731c2.879-0.173,5.297-0.957,6.672-2.158
					c-0.006-0.195-0.021-0.39-0.045-0.582C271.244,470.439,268.65,468.206,265.592,468.206z M263.432,474.72
					c-1.02,0-1.85-0.83-1.85-1.85c0-1.02,0.83-1.85,1.85-1.85c1.02,0,1.85,0.83,1.85,1.85
					C265.282,473.891,264.452,474.72,263.432,474.72z M268.17,473.812c-0.75,0-1.36-0.61-1.36-1.36s0.61-1.361,1.36-1.361
					c0.75,0,1.361,0.61,1.361,1.361S268.92,473.812,268.17,473.812z"/>
			</g>
			<path id="XMLID_336_" style="fill:#1D262D;" d="M281.595,470.073c-0.295-0.116-0.805-0.309-1.382-0.237
				c-0.551,0.068-0.844,0.34-0.844,1.007v0.866h2.228v1.717h-2.228v5.455h-1.932v-5.455h-1.34v-1.717h1.34v-0.888
				c0-1.68,0.896-2.783,2.568-2.783c0.643,0,1.157,0.122,1.59,0.308L281.595,470.073z"/>
			<path id="XMLID_334_" style="fill:#1D262D;" d="M286.298,473.405c-0.177-0.03-0.358-0.046-0.526-0.046
				c-0.895,0-1.51,0.548-1.51,1.613v3.908h-1.932v-7.172h1.873v0.785c0.451-0.674,1.14-0.977,2.021-0.977
				c0.414,0,0.848,0.128,1.094,0.337L286.298,473.405z"/>
			<path id="XMLID_331_" style="fill:#1D262D;" d="M293.965,475.283c0,0.222-0.015,0.489-0.037,0.651h-5.085
				c0.207,1.036,0.933,1.488,1.843,1.488c0.622,0,1.295-0.252,1.813-0.688l1.133,1.243c-0.814,0.748-1.85,1.088-3.057,1.088
				c-2.198,0-3.723-1.495-3.723-3.753c0-2.257,1.48-3.797,3.627-3.797C292.544,471.516,293.958,473.048,293.965,475.283z
				 M288.851,474.617h3.175c-0.177-0.918-0.733-1.436-1.562-1.436C289.554,473.181,289.021,473.729,288.851,474.617z"/>
			<path id="XMLID_328_" style="fill:#1D262D;" d="M301.618,475.283c0,0.222-0.015,0.489-0.037,0.651h-5.085
				c0.207,1.036,0.932,1.488,1.843,1.488c0.622,0,1.295-0.252,1.814-0.688l1.132,1.243c-0.814,0.748-1.85,1.088-3.057,1.088
				c-2.198,0-3.723-1.495-3.723-3.753c0-2.257,1.48-3.797,3.627-3.797C300.197,471.516,301.611,473.048,301.618,475.283z
				 M296.504,474.617h3.175c-0.178-0.918-0.733-1.436-1.562-1.436C297.207,473.181,296.674,473.729,296.504,474.617z"/>
			<path id="XMLID_325_" style="fill:#1D262D;" d="M309.964,475.29c0,2.154-1.495,3.775-3.471,3.775
				c-0.962,0-1.643-0.378-2.109-0.933v3.708h-1.924v-10.133h1.887v0.792c0.466-0.585,1.155-0.984,2.139-0.984
				C308.469,471.516,309.964,473.137,309.964,475.29z M304.287,475.29c0,1.132,0.747,1.976,1.843,1.976
				c1.14,0,1.85-0.881,1.85-1.976c0-1.095-0.711-1.976-1.85-1.976C305.035,473.314,304.287,474.158,304.287,475.29z"/>
			<path id="XMLID_322_" style="fill:#1D262D;" d="M313.067,469.362c0,0.696-0.54,1.229-1.236,1.229
				c-0.696,0-1.229-0.533-1.229-1.229c0-0.696,0.533-1.243,1.229-1.243C312.527,468.118,313.067,468.666,313.067,469.362z
				 M312.809,478.88h-1.932v-7.172h1.932V478.88z"/>
			<path id="XMLID_320_" style="fill:#1D262D;" d="M316.032,474.262l2.702-2.554h2.368l-3.479,3.375l3.501,3.797h-2.376
				l-2.716-2.901v2.901H314.1v-10.658h1.932V474.262z"/>
		</g>
		<g>
			<path style="fill:#1D262D;" d="M184.412,478.815v-1.055c-0.527,0.718-1.391,1.23-2.387,1.23c-1.846,0-3.149-1.406-3.149-3.706
				c0-2.256,1.289-3.721,3.149-3.721c0.952,0,1.816,0.469,2.387,1.245v-3.765h1.099v9.77H184.412z M184.412,476.896v-3.208
				c-0.395-0.615-1.245-1.143-2.124-1.143c-1.421,0-2.27,1.172-2.27,2.739c0,1.567,0.85,2.724,2.27,2.724
				C183.168,478.009,184.017,477.512,184.412,476.896z"/>
			<path style="fill:#1D262D;" d="M186.932,475.27c0-2.051,1.465-3.706,3.486-3.706c2.139,0,3.398,1.67,3.398,3.794v0.279h-5.727
				c0.088,1.333,1.025,2.446,2.549,2.446c0.805,0,1.626-0.322,2.182-0.893l0.527,0.718c-0.703,0.703-1.655,1.084-2.812,1.084
				C188.44,478.991,186.932,477.482,186.932,475.27z M190.403,472.473c-1.509,0-2.256,1.274-2.314,2.358h4.643
				C192.718,473.776,192.015,472.473,190.403,472.473z"/>
			<path style="fill:#1D262D;" d="M194.607,477.878l0.571-0.791c0.469,0.542,1.362,1.011,2.329,1.011c1.084,0,1.67-0.513,1.67-1.216
				c0-1.714-4.38-0.659-4.38-3.281c0-1.098,0.952-2.036,2.636-2.036c1.201,0,2.051,0.454,2.622,1.026l-0.513,0.762
				c-0.424-0.513-1.201-0.894-2.109-0.894c-0.967,0-1.567,0.483-1.567,1.113c0,1.552,4.38,0.527,4.38,3.281
				c0,1.187-0.952,2.139-2.783,2.139C196.306,478.991,195.325,478.639,194.607,477.878z"/>
			<path style="fill:#1D262D;" d="M201.477,469.997c0-0.41,0.337-0.747,0.732-0.747c0.41,0,0.747,0.337,0.747,0.747
				c0,0.41-0.337,0.732-0.747,0.732C201.814,470.729,201.477,470.407,201.477,469.997z M201.667,478.815v-7.075h1.099v7.075H201.667
				z"/>
			<path style="fill:#1D262D;" d="M204.582,480.631l0.556-0.82c0.586,0.703,1.289,0.967,2.3,0.967c1.172,0,2.27-0.571,2.27-2.124
				v-1.011c-0.513,0.718-1.377,1.26-2.373,1.26c-1.845,0-3.149-1.377-3.149-3.662c0-2.27,1.289-3.677,3.149-3.677
				c0.952,0,1.802,0.469,2.373,1.245v-1.069h1.098v6.87c0,2.344-1.641,3.076-3.369,3.076
				C206.237,481.686,205.417,481.452,204.582,480.631z M209.709,476.779v-3.091c-0.381-0.615-1.23-1.143-2.109-1.143
				c-1.421,0-2.27,1.128-2.27,2.695c0,1.553,0.849,2.695,2.27,2.695C208.478,477.936,209.328,477.394,209.709,476.779z"/>
			<path style="fill:#1D262D;" d="M217.413,478.815v-4.629c0-1.245-0.63-1.641-1.582-1.641c-0.865,0-1.685,0.527-2.095,1.099v5.17
				h-1.099v-7.075h1.099v1.025c0.498-0.586,1.465-1.201,2.519-1.201c1.48,0,2.256,0.747,2.256,2.285v4.966H217.413z"/>
			<path style="fill:#1D262D;" d="M219.932,475.27c0-2.051,1.465-3.706,3.486-3.706c2.139,0,3.398,1.67,3.398,3.794v0.279h-5.727
				c0.088,1.333,1.025,2.446,2.549,2.446c0.806,0,1.626-0.322,2.183-0.893l0.527,0.718c-0.703,0.703-1.655,1.084-2.812,1.084
				C221.441,478.991,219.932,477.482,219.932,475.27z M223.404,472.473c-1.509,0-2.256,1.274-2.314,2.358h4.643
				C225.718,473.776,225.015,472.473,223.404,472.473z"/>
			<path style="fill:#1D262D;" d="M233.35,478.815v-1.055c-0.527,0.718-1.392,1.23-2.388,1.23c-1.846,0-3.149-1.406-3.149-3.706
				c0-2.256,1.289-3.721,3.149-3.721c0.952,0,1.817,0.469,2.388,1.245v-3.765h1.098v9.77H233.35z M233.35,476.896v-3.208
				c-0.396-0.615-1.245-1.143-2.124-1.143c-1.421,0-2.27,1.172-2.27,2.739c0,1.567,0.849,2.724,2.27,2.724
				C232.105,478.009,232.954,477.512,233.35,476.896z"/>
			<path style="fill:#1D262D;" d="M239.692,478.815v-9.77h1.098v3.765c0.572-0.776,1.421-1.245,2.388-1.245
				c1.845,0,3.149,1.465,3.149,3.721c0,2.299-1.304,3.706-3.149,3.706c-0.996,0-1.86-0.513-2.388-1.23v1.055H239.692z
				 M242.9,478.009c1.436,0,2.285-1.157,2.285-2.724c0-1.568-0.85-2.739-2.285-2.739c-0.864,0-1.728,0.527-2.109,1.143v3.208
				C241.171,477.512,242.036,478.009,242.9,478.009z"/>
			<path style="fill:#1D262D;" d="M247.528,480.587c0.161,0.073,0.425,0.117,0.601,0.117c0.483,0,0.805-0.161,1.055-0.747
				l0.469-1.069l-2.959-7.148h1.187l2.358,5.801l2.344-5.801h1.201l-3.545,8.51c-0.425,1.025-1.143,1.421-2.08,1.435
				c-0.234,0-0.601-0.044-0.806-0.103L247.528,480.587z"/>
		</g>
	</g>
</g>
</svg>
